<svg width="27" height="26" viewBox="0 0 27 26" fill="none" xmlns="http://www.w3.org/2000/svg">
<path d="M14.0935 25.101C14.4314 25.0707 14.7659 25.0243 15.0971 24.9665L15.0974 24.9665L15.2234 24.9442L15.2248 24.9439C21.3941 23.7926 25.6717 18.1323 25.0947 11.8829C24.5176 5.63347 19.276 0.851978 13 0.85H13L12.85 0.849953V0.850907C6.20893 0.931254 0.85 6.33988 0.85 13C0.85 19.7102 6.28981 25.15 13 25.15C13.366 25.15 13.7306 25.1336 14.0935 25.101ZM14.0935 25.101L14.0801 24.9516L14.0935 25.101C14.0935 25.101 14.0935 25.101 14.0935 25.101ZM12.0489 24.0076L12.0488 24.0082C12.3633 24.0353 12.6816 24.0473 13.002 24.0473C13.3214 24.0473 13.6372 24.0326 13.9532 24.0054L13.966 24.0043V24.0049H13.9876C14.2923 23.9775 14.5951 23.9367 14.8955 23.8843L14.8977 23.8839L14.8977 23.8839C14.9087 23.8821 14.9162 23.8811 14.9227 23.8801C14.9308 23.879 14.937 23.8781 14.946 23.8764L14.9464 23.8764C15.2416 23.8234 15.534 23.7576 15.824 23.681L15.826 23.6804L15.8935 23.6636C16.1758 23.5871 16.455 23.4978 16.731 23.3989C16.7455 23.3934 16.7601 23.3883 16.7729 23.3839C16.779 23.3818 16.7847 23.3798 16.7902 23.3779C16.7973 23.3754 16.804 23.373 16.8107 23.3705L16.8111 23.3703C17.0823 23.2707 17.3493 23.1591 17.6124 23.0378L17.6167 23.0358L17.6168 23.0359C17.6466 23.0232 17.6749 23.011 17.7025 22.9981L17.7026 22.9981C17.9602 22.8778 18.2136 22.7439 18.4637 22.6016C18.4798 22.5923 18.4959 22.5833 18.5108 22.575L18.5125 22.5741C18.5284 22.5652 18.5431 22.557 18.5574 22.5486C18.8036 22.4045 19.044 22.2512 19.2785 22.0883L19.2787 22.0882C19.2958 22.0763 19.3099 22.0668 19.3233 22.0578C19.339 22.0472 19.3538 22.0371 19.3717 22.0246C19.6038 21.8604 19.8297 21.6865 20.05 21.5027V18.2002C20.0472 15.854 18.146 13.9528 15.7998 13.95H10.2002C7.85398 13.9528 5.95283 15.854 5.95 18.2002V21.5043L5.95762 21.511C6.17369 21.6903 6.39525 21.8614 6.62229 22.0225C6.64322 22.0371 6.65906 22.048 6.67557 22.0592C6.69096 22.0697 6.70694 22.0806 6.72816 22.0954C6.96013 22.2553 7.19615 22.4065 7.43742 22.5474C7.43778 22.5476 7.43814 22.5478 7.4385 22.548L7.44686 22.5527C7.47852 22.5704 7.51076 22.5885 7.5427 22.6066L7.54308 22.6068C7.78983 22.7476 8.04002 22.8806 8.29424 22.9982L8.29574 22.9989C8.31753 23.0093 8.3385 23.0186 8.36158 23.0288C8.37092 23.0329 8.38061 23.0372 8.39084 23.0417L8.39243 23.0425C8.65356 23.1627 8.91823 23.2736 9.18728 23.3725L9.1878 23.3727C9.2047 23.379 9.21636 23.3829 9.22959 23.3873C9.24128 23.3912 9.25419 23.3956 9.27303 23.4023L9.27312 23.4024C9.54811 23.501 9.8268 23.5898 10.1082 23.6661C10.1085 23.6662 10.1089 23.6663 10.1092 23.6664L10.1781 23.684L10.1792 23.6843C10.4687 23.7609 10.7608 23.8264 11.0557 23.8791L11.0578 23.8795C11.0628 23.8804 11.0685 23.8813 11.0773 23.8826L12.0489 24.0076ZM12.0489 24.0076H12.0359H12.0143C11.7101 23.9805 11.4078 23.9397 11.1079 23.8875L12.0489 24.0076ZM21.15 18.2V18.1998C21.1466 15.2466 18.7534 12.8534 15.8002 12.85H15.8L10.2 12.85L10.1998 12.85C7.24661 12.8534 4.85342 15.2466 4.85 18.1998V18.2V20.4546C0.8604 16.1024 0.992785 9.34417 5.21313 5.15232C9.52221 0.872532 16.4778 0.872532 20.7869 5.15233C25.0072 9.34417 25.1396 16.1024 21.15 20.4546V18.2Z" fill="url(#paint0_linear)" stroke="url(#paint1_linear)" stroke-width="0.3"/>
<path d="M13 4.19995C10.7908 4.19995 9 5.99077 9 8.19995C9 10.4091 10.7908 12.2 13 12.2C15.2092 12.2 17 10.4091 17 8.19995C16.9977 5.99175 15.2082 4.20229 13 4.19995ZM13 11.4C11.2326 11.4 9.8 9.96733 9.8 8.19995C9.8 6.43257 11.2326 4.99995 13 4.99995C14.7674 4.99995 16.2 6.43257 16.2 8.19995C16.198 9.96636 14.7664 11.398 13 11.4Z" fill="url(#paint2_linear)"/>
<defs>
<linearGradient id="paint0_linear" x1="1" y1="13" x2="24.9968" y2="13" gradientUnits="userSpaceOnUse">
<stop offset="0.013544" stop-color="white"/>
<stop offset="1" stop-color="#66F6FF"/>
</linearGradient>
<linearGradient id="paint1_linear" x1="1" y1="13" x2="24.9968" y2="13" gradientUnits="userSpaceOnUse">
<stop offset="0.013544" stop-color="white"/>
<stop offset="1" stop-color="#66F6FF"/>
</linearGradient>
<linearGradient id="paint2_linear" x1="9" y1="8.19995" x2="17" y2="8.19995" gradientUnits="userSpaceOnUse">
<stop offset="0.013544" stop-color="white"/>
<stop offset="1" stop-color="#66F6FF"/>
</linearGradient>
</defs>
</svg>
