<svg width="24" height="24" viewBox="0 0 24 24" fill="none" xmlns="http://www.w3.org/2000/svg">
<g clip-path="url(#clip0)">
<path d="M23.7194 9.16382L21.0006 6.98879V2.24967C21.0006 1.83512 20.6652 1.49967 20.2506 1.49967H17.2521C16.8382 1.49967 16.5021 1.83512 16.5021 2.24893L16.5013 3.38931L12.4693 0.163702C12.1953 -0.0545675 11.8057 -0.0545675 11.5318 0.163702L0.281599 9.16388C0.0333035 9.36309 -0.062629 9.69784 0.0428328 9.99809C0.148295 10.2984 0.43178 10.4998 0.750348 10.4998H3.00034V23.25C3.00034 23.6645 3.33578 23.9999 3.75034 23.9999H20.2506C20.6652 23.9999 21.0006 23.6645 21.0006 23.25V10.4998H23.2506C23.5693 10.4998 23.8527 10.2984 23.9582 9.99809C24.0636 9.69778 23.9677 9.36309 23.7194 9.16382ZM18.0006 4.50046L18.0013 2.99972H19.5006V5.78884L17.8901 4.50041C17.89 4.50035 18.0006 4.50046 18.0006 4.50046ZM10.5005 22.4999V16.4999H13.5005V22.4999H10.5005ZM20.2506 8.99975C19.8361 8.99975 19.5006 9.33519 19.5006 9.74974V22.4999H15.0006V15.7498C15.0006 15.3353 14.6651 14.9998 14.2506 14.9998H9.75053C9.33598 14.9998 9.00053 15.3353 9.00053 15.7498V22.4999H4.50039V9.74974C4.50039 9.33519 4.16495 8.99975 3.75039 8.99975H2.88828L12.0005 1.70991L21.1127 8.9998C21.1127 8.99975 20.2506 8.99975 20.2506 8.99975Z" fill="url(#paint0_linear)"/>
</g>
<defs>
<linearGradient id="paint0_linear" x1="0.000488415" y1="12" x2="24.0005" y2="12" gradientUnits="userSpaceOnUse">
<stop offset="0.013544" stop-color="white"/>
<stop offset="1" stop-color="#66F6FF"/>
</linearGradient>
<clipPath id="clip0">
<rect width="24" height="24" fill="white"/>
</clipPath>
</defs>
</svg>
