<svg width="22" height="22" viewBox="0 0 22 22" fill="none" xmlns="http://www.w3.org/2000/svg">
<path d="M18.9062 2.40625H3.09375C2.71348 2.40625 2.40625 2.71348 2.40625 3.09375V18.9062C2.40625 19.2865 2.71348 19.5938 3.09375 19.5938H18.9062C19.2865 19.5938 19.5938 19.2865 19.5938 18.9062V3.09375C19.5938 2.71348 19.2865 2.40625 18.9062 2.40625ZM18.2188 18.2188H14.2635V12.9379H16.4979L16.833 10.3447H14.2635V8.68828C14.2635 7.93633 14.4719 7.425 15.5482 7.425H16.9211V5.10469C16.6826 5.07246 15.8684 5.00156 14.9188 5.00156C12.9379 5.00156 11.5822 6.21113 11.5822 8.43047V10.3426H9.34355V12.9357H11.5844V18.2188H3.78125V3.78125H18.2188V18.2188Z" fill="white"/>
</svg>
