<svg width="36" height="36" viewBox="0 0 36 36" fill="none" xmlns="http://www.w3.org/2000/svg">
<g filter="url(#filter0_d)">
<path d="M21.9643 8.1001H13.9823C12.4226 8.10193 10.9274 8.72238 9.82462 9.82532C8.72187 10.9283 8.10167 12.4236 8.1001 13.9833L8.1001 21.9653C8.10193 23.5249 8.72238 25.0202 9.82532 26.1229C10.9283 27.2257 12.4236 27.8459 13.9833 27.8475H21.9653C23.5249 27.8456 25.0202 27.2252 26.1229 26.1222C27.2257 25.0193 27.8459 23.5239 27.8475 21.9643V13.9823C27.8456 12.4226 27.2252 10.9274 26.1222 9.82462C25.0193 8.72187 23.5239 8.10167 21.9643 8.1001V8.1001ZM25.8613 21.9643C25.8613 22.4761 25.7605 22.9828 25.5647 23.4556C25.3689 23.9284 25.0818 24.358 24.7199 24.7199C24.358 25.0818 23.9284 25.3689 23.4556 25.5647C22.9828 25.7605 22.4761 25.8613 21.9643 25.8613H13.9823C12.9489 25.8611 11.9579 25.4504 11.2273 24.7196C10.4967 23.9888 10.0862 22.9977 10.0862 21.9643V13.9823C10.0865 12.9489 10.4972 11.9579 11.228 11.2273C11.9588 10.4967 12.9499 10.0862 13.9833 10.0862H21.9653C22.9987 10.0865 23.9896 10.4972 24.7203 11.228C25.4509 11.9588 25.8613 12.9499 25.8613 13.9833V21.9653V21.9643Z" fill="white"/>
<path d="M17.9734 12.8662C16.6198 12.8683 15.3222 13.407 14.3651 14.3643C13.408 15.3216 12.8695 16.6193 12.8677 17.9729C12.8692 19.3269 13.4077 20.625 14.3651 21.5825C15.3224 22.54 16.6204 23.0788 17.9744 23.0806C19.3286 23.0791 20.6268 22.5404 21.5843 21.5829C22.5419 20.6253 23.0805 19.3271 23.0821 17.9729C23.08 16.6189 22.541 15.321 21.5833 14.3639C20.6256 13.4068 19.3274 12.8685 17.9734 12.8672V12.8662ZM17.9734 21.0945C17.1458 21.0945 16.352 20.7657 15.7668 20.1805C15.1816 19.5953 14.8528 18.8016 14.8528 17.9739C14.8528 17.1463 15.1816 16.3525 15.7668 15.7673C16.352 15.1821 17.1458 14.8533 17.9734 14.8533C18.801 14.8533 19.5948 15.1821 20.18 15.7673C20.7652 16.3525 21.094 17.1463 21.094 17.9739C21.094 18.8016 20.7652 19.5953 20.18 20.1805C19.5948 20.7657 18.801 21.0945 17.9734 21.0945Z" fill="white"/>
<path d="M23.0912 14.1287C23.7669 14.1287 24.3147 13.5809 24.3147 12.9052C24.3147 12.2294 23.7669 11.6816 23.0912 11.6816C22.4155 11.6816 21.8677 12.2294 21.8677 12.9052C21.8677 13.5809 22.4155 14.1287 23.0912 14.1287Z" fill="white"/>
</g>
<defs>
<filter id="filter0_d" x="-4" y="0" width="44" height="44" filterUnits="userSpaceOnUse" color-interpolation-filters="sRGB">
<feFlood flood-opacity="0" result="BackgroundImageFix"/>
<feColorMatrix in="SourceAlpha" type="matrix" values="0 0 0 0 0 0 0 0 0 0 0 0 0 0 0 0 0 0 127 0"/>
<feOffset dy="4"/>
<feGaussianBlur stdDeviation="2"/>
<feColorMatrix type="matrix" values="0 0 0 0 0 0 0 0 0 0 0 0 0 0 0 0 0 0 0.25 0"/>
<feBlend mode="normal" in2="BackgroundImageFix" result="effect1_dropShadow"/>
<feBlend mode="normal" in="SourceGraphic" in2="effect1_dropShadow" result="shape"/>
</filter>
</defs>
</svg>
