<svg width="26" height="26" viewBox="0 0 26 26" fill="none" xmlns="http://www.w3.org/2000/svg">
<path d="M22.5334 18.2H21.8548C21.3789 18.2004 20.9096 18.3112 20.4837 18.5237C19.8641 18.8317 19.136 18.8317 18.5164 18.5237C18.2692 18.4024 18.0069 18.3149 17.7364 18.2637L18.5809 11.7H19.5C19.7393 11.7 19.9334 11.506 19.9334 11.2667V9.53333C19.9334 9.29403 19.7393 9.1 19.5 9.1H17.7667V7.8C17.7667 7.68506 17.721 7.57488 17.6397 7.49363L15.6 5.45393V4.108L16.257 3.5828L17.3789 5.82703L18.1545 5.43963L16.949 3.029L17.485 2.6H19.0667C19.306 2.6 19.5 2.40598 19.5 2.16667V0.433333C19.5 0.194025 19.306 0 19.0667 0H14.7334C12.5806 0.0026 10.836 1.7472 10.8334 3.9C10.8334 4.13931 11.0274 4.33333 11.2667 4.33333H12.1334V5.45393L10.9603 6.62697C10.8791 6.70822 10.8334 6.81839 10.8334 6.93333V9.1H9.9667V5.63333C9.96605 5.57965 9.95532 5.52663 9.93507 5.4769C9.92716 5.46005 9.91817 5.4437 9.9082 5.42793C9.8978 5.40524 9.88561 5.38335 9.8718 5.3625L8.23337 3.315V0.433333C8.23337 0.194025 8.03934 0 7.80003 0H5.20003C4.96072 0 4.7667 0.194025 4.7667 0.433333V3.315L3.12827 5.3625C3.11445 5.38335 3.10227 5.40524 3.09187 5.42793C3.0819 5.4437 3.07291 5.46005 3.065 5.4769C3.04474 5.52663 3.03402 5.57965 3.03337 5.63333V9.1H1.30003C1.06072 9.1 0.866699 9.29403 0.866699 9.53333V11.2667C0.866699 11.506 1.06072 11.7 1.30003 11.7H2.21913L3.9035 24.7555C3.9314 24.9716 4.11545 25.1334 4.33337 25.1333H14.534C15.0255 25.6842 15.7285 25.9995 16.4667 26H17.1453C17.6212 25.9996 18.0905 25.8888 18.5164 25.6763C19.136 25.3683 19.8641 25.3683 20.4837 25.6763C20.9096 25.8888 21.3789 25.9996 21.8548 26H22.5334C23.9687 25.9986 25.132 24.8354 25.1334 23.4V20.8C25.132 19.3646 23.9687 18.2014 22.5334 18.2ZM17.7667 0.866667H18.6334V1.73333H17.7667V0.866667ZM19.0667 9.96667V10.8333H13V9.96667H19.0667ZM11.7308 3.46667C11.9482 1.97519 13.2261 0.868563 14.7334 0.866667H16.9V1.95867L15.0146 3.46667H11.7308ZM14.7334 4.33333V5.2H13V4.33333H14.7334ZM11.7 7.11273L12.7461 6.06667H14.9873L16.9 7.9794V9.1H11.7V7.11273ZM11.2667 9.96667H12.1334V13C12.1324 13.165 12.2254 13.3162 12.373 13.39L14.973 14.69C15.0998 14.7525 15.1959 14.8636 15.2395 14.9981C15.2844 15.1425 15.2688 15.2988 15.1962 15.4314C15.0715 15.6816 14.7676 15.7834 14.5174 15.6586C14.517 15.6584 14.5166 15.6582 14.5163 15.6581L12.7569 14.7784C12.5419 14.6733 12.2824 14.7625 12.1773 14.9775C12.1486 15.0364 12.1335 15.1011 12.1334 15.1667V19.5C12.1334 19.9787 11.7454 20.3667 11.2667 20.3667V16.4667H10.4V20.3667H9.53337V16.4667H8.6667V20.3667H7.80003V16.4667H6.93337V20.3667C6.4547 20.3667 6.0667 19.9787 6.0667 19.5V9.96667H11.2667ZM5.63337 0.866667H7.3667V3.03333H5.63337V0.866667ZM5.40803 3.9H7.59203L8.63203 5.2H4.36803L5.40803 3.9ZM3.90003 6.06667H9.10003V9.1H3.90003V6.06667ZM1.73337 10.8333V9.96667H5.20003V10.8333H1.73337ZM13.8667 20.8V23.4C13.8675 23.6954 13.9188 23.9885 14.0184 24.2667H4.71427L3.09273 11.7H5.20003V19.5C5.20003 20.4573 5.97608 21.2333 6.93337 21.2333H11.2667C12.224 21.2333 13 20.4573 13 19.5V15.8678L14.1319 16.4337C14.8159 16.7713 15.644 16.4905 15.9815 15.8065C15.9829 15.8037 15.9843 15.8009 15.9857 15.798C16.1536 15.4653 16.1821 15.0793 16.065 14.7255C15.9495 14.3716 15.6966 14.0789 15.363 13.9135L13 12.7322V11.7H17.7073L16.8684 18.2H16.4667C15.0313 18.2014 13.8681 19.3646 13.8667 20.8ZM24.2667 23.4C24.2667 24.3573 23.4907 25.1333 22.5334 25.1333H21.8548C21.5135 25.1328 21.1769 25.0534 20.8715 24.9011C20.0076 24.4718 18.9925 24.4718 18.1285 24.9011C17.8231 25.0534 17.4866 25.1328 17.1453 25.1333H16.4667C15.5094 25.1333 14.7334 24.3573 14.7334 23.4V22.7327C15.2086 23.162 15.8262 23.3998 16.4667 23.4H17.1453C17.6212 23.3996 18.0905 23.2888 18.5164 23.0763C19.136 22.7683 19.8641 22.7683 20.4837 23.0763C20.9096 23.2888 21.3789 23.3996 21.8548 23.4H22.5334C23.1738 23.3998 23.7915 23.162 24.2667 22.7327V23.4ZM22.5334 22.5333H21.8548C21.5135 22.5328 21.1769 22.4534 20.8715 22.3011C20.0076 21.8718 18.9925 21.8718 18.1285 22.3011C17.8231 22.4534 17.4866 22.5328 17.1453 22.5333H16.4667C15.5094 22.5333 14.7334 21.7573 14.7334 20.8C14.7334 19.8427 15.5094 19.0667 16.4667 19.0667H17.1453C17.4866 19.0672 17.8231 19.1466 18.1285 19.2989C18.9925 19.7279 20.0075 19.7279 20.8715 19.2989C21.1769 19.1466 21.5135 19.0672 21.8548 19.0667H22.5334C23.4907 19.0667 24.2667 19.8427 24.2667 20.8C24.2667 21.7573 23.4907 22.5333 22.5334 22.5333Z" fill="url(#paint0_linear)"/>
<path d="M22.9668 19.9333H22.1001V20.8H22.9668V19.9333Z" fill="url(#paint1_linear)"/>
<path d="M18.6333 19.9333H17.7666V20.8H18.6333V19.9333Z" fill="url(#paint2_linear)"/>
<path d="M16.8999 20.3667H16.0332V21.2334H16.8999V20.3667Z" fill="url(#paint3_linear)"/>
<path d="M21.2334 20.3667H20.3667V21.2334H21.2334V20.3667Z" fill="url(#paint4_linear)"/>
<defs>
<linearGradient id="paint0_linear" x1="0.866699" y1="13" x2="25.1334" y2="13" gradientUnits="userSpaceOnUse">
<stop offset="0.013544" stop-color="white"/>
<stop offset="1" stop-color="#66F6FF"/>
</linearGradient>
<linearGradient id="paint1_linear" x1="22.1001" y1="20.3667" x2="22.9668" y2="20.3667" gradientUnits="userSpaceOnUse">
<stop offset="0.013544" stop-color="white"/>
<stop offset="1" stop-color="#66F6FF"/>
</linearGradient>
<linearGradient id="paint2_linear" x1="17.7666" y1="20.3667" x2="18.6333" y2="20.3667" gradientUnits="userSpaceOnUse">
<stop offset="0.013544" stop-color="white"/>
<stop offset="1" stop-color="#66F6FF"/>
</linearGradient>
<linearGradient id="paint3_linear" x1="16.0332" y1="20.8" x2="16.8999" y2="20.8" gradientUnits="userSpaceOnUse">
<stop offset="0.013544" stop-color="white"/>
<stop offset="1" stop-color="#66F6FF"/>
</linearGradient>
<linearGradient id="paint4_linear" x1="20.3667" y1="20.8" x2="21.2334" y2="20.8" gradientUnits="userSpaceOnUse">
<stop offset="0.013544" stop-color="white"/>
<stop offset="1" stop-color="#66F6FF"/>
</linearGradient>
</defs>
</svg>
