<svg width="26" height="24" viewBox="0 0 26 24" fill="none" xmlns="http://www.w3.org/2000/svg">
<path d="M24.375 11.9345C24.375 11.8829 24.375 11.8243 24.3725 11.7563C24.3699 11.5665 24.3648 11.3532 24.3598 11.1259C24.3395 10.472 24.3039 9.82041 24.248 9.20635C24.1719 8.36025 24.0602 7.65478 23.9078 7.1251C23.747 6.57232 23.4319 6.06818 22.9939 5.66306C22.5559 5.25794 22.0104 4.96603 21.4119 4.8165C20.6934 4.63838 19.2867 4.52822 17.3062 4.46025C16.3643 4.42744 15.3562 4.40635 14.3482 4.39463C13.9953 4.38994 13.6678 4.3876 13.3732 4.38525H12.6268C12.3322 4.3876 12.0047 4.38994 11.6518 4.39463C10.6438 4.40635 9.63574 4.42744 8.69375 4.46025C6.71328 4.53057 5.3041 4.64072 4.58809 4.8165C3.98938 4.96566 3.44365 5.25745 3.0056 5.66262C2.56755 6.0678 2.25255 6.57214 2.09219 7.1251C1.9373 7.65478 1.82812 8.36025 1.75195 9.20635C1.69609 9.82041 1.66055 10.472 1.64023 11.1259C1.63262 11.3532 1.63008 11.5665 1.62754 11.7563C1.62754 11.8243 1.625 11.8829 1.625 11.9345V12.0657C1.625 12.1173 1.625 12.1759 1.62754 12.2438C1.63008 12.4337 1.63516 12.647 1.64023 12.8743C1.66055 13.5282 1.69609 14.1798 1.75195 14.7938C1.82812 15.6399 1.93984 16.3454 2.09219 16.8751C2.41719 17.9978 3.37187 18.8837 4.58809 19.1837C5.3041 19.3618 6.71328 19.472 8.69375 19.5399C9.63574 19.5728 10.6438 19.5938 11.6518 19.6056C12.0047 19.6103 12.3322 19.6126 12.6268 19.6149H13.3732C13.6678 19.6126 13.9953 19.6103 14.3482 19.6056C15.3562 19.5938 16.3643 19.5728 17.3062 19.5399C19.2867 19.4696 20.6959 19.3595 21.4119 19.1837C22.6281 18.8837 23.5828 18.0001 23.9078 16.8751C24.0627 16.3454 24.1719 15.6399 24.248 14.7938C24.3039 14.1798 24.3395 13.5282 24.3598 12.8743C24.3674 12.647 24.3699 12.4337 24.3725 12.2438C24.3725 12.1759 24.375 12.1173 24.375 12.0657V11.9345ZM22.5469 12.0563C22.5469 12.1056 22.5469 12.1595 22.5443 12.2228C22.5418 12.4056 22.5367 12.6071 22.5316 12.8251C22.5139 13.4485 22.4783 14.072 22.425 14.6509C22.3564 15.4056 22.26 16.0243 22.1406 16.4392C21.9832 16.9806 21.5211 17.4095 20.9371 17.5524C20.4039 17.6837 19.0607 17.7892 17.2352 17.8524C16.3109 17.8853 15.3156 17.9063 14.3229 17.9181C13.975 17.9228 13.6525 17.9251 13.3631 17.9251H12.6369L11.6771 17.9181C10.6844 17.9063 9.6916 17.8853 8.76484 17.8524C6.93926 17.7868 5.59355 17.6837 5.06289 17.5524C4.47891 17.4071 4.0168 16.9806 3.85938 16.4392C3.74004 16.0243 3.64355 15.4056 3.575 14.6509C3.52168 14.072 3.48867 13.4485 3.46836 12.8251C3.46074 12.6071 3.4582 12.4032 3.45566 12.2228C3.45566 12.1595 3.45312 12.1032 3.45312 12.0563V11.9438C3.45312 11.8946 3.45313 11.8407 3.45566 11.7774C3.4582 11.5946 3.46328 11.3931 3.46836 11.1751C3.48613 10.5517 3.52168 9.92822 3.575 9.34932C3.64355 8.59463 3.74004 7.97588 3.85938 7.56104C4.0168 7.01963 4.47891 6.59072 5.06289 6.44775C5.59609 6.3165 6.93926 6.21103 8.76484 6.14775C9.68906 6.11494 10.6844 6.09385 11.6771 6.08213C12.025 6.07744 12.3475 6.0751 12.6369 6.0751H13.3631L14.3229 6.08213C15.3156 6.09385 16.3084 6.11494 17.2352 6.14775C19.0607 6.21338 20.4064 6.3165 20.9371 6.44775C21.5211 6.59307 21.9832 7.01963 22.1406 7.56104C22.26 7.97588 22.3564 8.59463 22.425 9.34932C22.4783 9.92822 22.5113 10.5517 22.5316 11.1751C22.5393 11.3931 22.5418 11.597 22.5443 11.7774C22.5443 11.8407 22.5469 11.897 22.5469 11.9438V12.0563ZM10.7402 15.1407L16.6309 11.9767L10.7402 8.85947V15.1407Z" fill="white"/>
</svg>
